<svg xmlns="http://www.w3.org/2000/svg" width="675" height="675" viewBox="0 0 675 675">
  <g id="Group_40" data-name="Group 40" transform="translate(-623 -203)">
    <rect id="Rectangle_1" data-name="Rectangle 1" width="675" height="675" transform="translate(623 203)" fill="none"/>
    <g id="Group_1" data-name="Group 1" transform="translate(599.69 2.597)">
      <g id="Group_25" data-name="Group 25" transform="translate(115.13 283.425)">
        <path id="Path_387" data-name="Path 387" d="M133.071,354.157q14.687-5.69,21.223,4.691A14.955,14.955,0,0,1,132.7,378.792c-6.455-4.825-7.645-12.285-3.14-21.3-3.886,2.39-7.79,3.364-11.968,2.545a14.686,14.686,0,0,1-9.922-6.761,15.181,15.181,0,0,1,21.5-20.587C135.867,337.34,137.146,344.39,133.071,354.157Z" transform="translate(57.664 -169.881)" fill="#fbb901"/>
        <path id="Path_388" data-name="Path 388" d="M128.8,351.292a14.93,14.93,0,1,1-14.689-15.1A14.98,14.98,0,0,1,128.8,351.292Z" transform="translate(42.123 -154.724)" fill="#fbb901"/>
        <path id="Path_389" data-name="Path 389" d="M134.762,357.333a14.737,14.737,0,1,1-14.83-14.644A14.8,14.8,0,0,1,134.762,357.333Z" transform="translate(57.61 -138.872)" fill="#fbb901"/>
        <path id="Path_390" data-name="Path 390" d="M111.927,338.03a14.067,14.067,0,1,1,13.963,14.1A13.949,13.949,0,0,1,111.927,338.03Z" transform="translate(73.804 -184.451)" fill="#fbb901"/>
        <path id="Path_391" data-name="Path 391" d="M113.453,351.908a14.022,14.022,0,1,1,13.942-14.1A13.9,13.9,0,0,1,113.453,351.908Z" transform="translate(43.132 -184.785)" fill="#fbb901"/>
        <path id="Path_392" data-name="Path 392" d="M132.265,358.193a13.929,13.929,0,1,1,13.853-13.939A13.89,13.89,0,0,1,132.265,358.193Z" transform="translate(89.253 -169.002)" fill="#fbb901"/>
        <path id="Path_393" data-name="Path 393" d="M120.942,344.159a13.929,13.929,0,1,1-13.818-13.973A13.892,13.892,0,0,1,120.942,344.159Z" transform="translate(27.845 -169.368)" fill="#fbb901"/>
        <path id="Path_394" data-name="Path 394" d="M131.846,370.4a13.707,13.707,0,1,1,13.743-13.732A13.768,13.768,0,0,1,131.846,370.4Z" transform="translate(89.043 -138.141)" fill="#fbb901"/>
        <path id="Path_395" data-name="Path 395" d="M106.542,370.119a13.629,13.629,0,1,1,13.736-13.454A13.576,13.576,0,0,1,106.542,370.119Z" transform="translate(27.694 -138.451)" fill="#fbb901"/>
        <path id="Path_396" data-name="Path 396" d="M125.321,376.3A13.473,13.473,0,1,1,138.9,363.056,13.372,13.372,0,0,1,125.321,376.3Z" transform="translate(73.857 -122.622)" fill="#fbb901"/>
        <path id="Path_397" data-name="Path 397" d="M112.751,376.15a13.475,13.475,0,1,1,13.557-13.261A13.372,13.372,0,0,1,112.751,376.15Z" transform="translate(43.155 -122.988)" fill="#fbb901"/>
        <path id="Path_398" data-name="Path 398" d="M132.566,331.366a13.365,13.365,0,1,1-13.148-13.454A13.442,13.442,0,0,1,132.566,331.366Z" transform="translate(58.949 -199.309)" fill="#fbb901"/>
        <path id="Path_399" data-name="Path 399" d="M137.717,362.853a12.973,12.973,0,1,1,12.91-12.9A12.845,12.845,0,0,1,137.717,362.853Z" transform="translate(104.917 -152.972)" fill="#fbb901"/>
        <path id="Path_400" data-name="Path 400" d="M99.888,336.775a12.916,12.916,0,1,1-12.952,12.88A12.841,12.841,0,0,1,99.888,336.775Z" transform="translate(12.847 -153.296)" fill="#fbb901"/>
        <path id="Path_401" data-name="Path 401" d="M131.229,368.517a12.67,12.67,0,1,1-12.639-12.639A12.732,12.732,0,0,1,131.229,368.517Z" transform="translate(59.076 -106.701)" fill="#fbb901"/>
        <path id="Path_402" data-name="Path 402" d="M143.823,330.6a12.586,12.586,0,1,1-12.711-12.457A12.534,12.534,0,0,1,143.823,330.6Z" transform="translate(90.204 -198.755)" fill="#fbb901"/>
        <path id="Path_403" data-name="Path 403" d="M106.1,343.074a12.536,12.536,0,1,1,12.46-12.677A12.432,12.432,0,0,1,106.1,343.074Z" transform="translate(28.836 -199.084)" fill="#fbb901"/>
        <path id="Path_404" data-name="Path 404" d="M99.7,349.2A12.44,12.44,0,1,1,112.1,336.8,12.324,12.324,0,0,1,99.7,349.2Z" transform="translate(13.552 -183.664)" fill="#fbb901"/>
        <path id="Path_405" data-name="Path 405" d="M149.91,336.893a12.465,12.465,0,1,1-12.377-12.425A12.337,12.337,0,0,1,149.91,336.893Z" transform="translate(105.642 -183.317)" fill="#fbb901"/>
        <path id="Path_406" data-name="Path 406" d="M111.3,361.591A12.06,12.06,0,1,1,99.1,349.613,11.988,11.988,0,0,1,111.3,361.591Z" transform="translate(13.455 -121.986)" fill="#fbb901"/>
        <path id="Path_407" data-name="Path 407" d="M137.1,373.922a12.084,12.084,0,1,1,12.013-12.154A12.04,12.04,0,0,1,137.1,373.922Z" transform="translate(105.547 -121.636)" fill="#fbb901"/>
        <path id="Path_408" data-name="Path 408" d="M124.6,336.034a12.011,12.011,0,1,1,11.951-11.944A11.915,11.915,0,0,1,124.6,336.034Z" transform="translate(75.26 -213.699)" fill="#fbb901"/>
        <path id="Path_409" data-name="Path 409" d="M123.93,323.838a11.994,11.994,0,1,1-11.889-11.972A11.887,11.887,0,0,1,123.93,323.838Z" transform="translate(44.571 -214.053)" fill="#fbb901"/>
        <path id="Path_410" data-name="Path 410" d="M130.746,356.086a11.959,11.959,0,1,1-12.061,11.789A11.839,11.839,0,0,1,130.746,356.086Z" transform="translate(90.285 -106.194)" fill="#fbb901"/>
        <path id="Path_411" data-name="Path 411" d="M105.543,379.828A11.944,11.944,0,1,1,117.4,367.86,11.827,11.827,0,0,1,105.543,379.828Z" transform="translate(28.889 -106.55)" fill="#fbb901"/>
        <path id="Path_412" data-name="Path 412" d="M81.124,342.377a11.783,11.783,0,1,1,11.628,12A11.92,11.92,0,0,1,81.124,342.377Z" transform="translate(-1.336 -167.847)" fill="#fbb901"/>
        <path id="Path_413" data-name="Path 413" d="M155.055,342.878a11.793,11.793,0,1,1-11.666-11.92A11.913,11.913,0,0,1,155.055,342.878Z" transform="translate(121.469 -167.488)" fill="#fbb901"/>
        <path id="Path_414" data-name="Path 414" d="M143.059,366.775a11.585,11.585,0,1,1,11.49-11.745A11.583,11.583,0,0,1,143.059,366.775Z" transform="translate(121.252 -136.634)" fill="#fbb901"/>
        <path id="Path_415" data-name="Path 415" d="M92.548,343.48a11.5,11.5,0,1,1-11.494,11.38A11.4,11.4,0,0,1,92.548,343.48Z" transform="translate(-1.5 -136.942)" fill="#fbb901"/>
        <path id="Path_416" data-name="Path 416" d="M111.221,385.052a11.318,11.318,0,1,1,11.4-11.236A11.374,11.374,0,0,1,111.221,385.052Z" transform="translate(44.685 -90.754)" fill="#fbb901"/>
        <path id="Path_417" data-name="Path 417" d="M135.195,373.863a11.308,11.308,0,1,1-11.322-11.294A11.385,11.385,0,0,1,135.195,373.863Z" transform="translate(75.394 -90.381)" fill="#fbb901"/>
        <path id="Path_418" data-name="Path 418" d="M117.506,327.826a10.892,10.892,0,1,1,10.833-11.012A10.79,10.79,0,0,1,117.506,327.826Z" transform="translate(60.703 -228.258)" fill="#fbb901"/>
        <path id="Path_419" data-name="Path 419" d="M98.311,333.856A10.827,10.827,0,1,1,109.34,323.3,10.841,10.841,0,0,1,98.311,333.856Z" transform="translate(14.696 -213.223)" fill="#fbb901"/>
        <path id="Path_420" data-name="Path 420" d="M147.136,323.294a10.842,10.842,0,1,1-10.617-10.943A10.806,10.806,0,0,1,147.136,323.294Z" transform="translate(106.793 -212.873)" fill="#fbb901"/>
        <path id="Path_421" data-name="Path 421" d="M153.345,329.492a10.793,10.793,0,1,1-10.816-10.833A10.862,10.862,0,0,1,153.345,329.492Z" transform="translate(122.178 -197.483)" fill="#fbb901"/>
        <path id="Path_422" data-name="Path 422" d="M102.978,329.4a10.783,10.783,0,1,1-10.74-10.885A10.876,10.876,0,0,1,102.978,329.4Z" transform="translate(-0.626 -197.84)" fill="#fbb901"/>
        <path id="Path_423" data-name="Path 423" d="M148.367,337.625a10.507,10.507,0,1,1-10.379,10.569A10.443,10.443,0,0,1,148.367,337.625Z" transform="translate(137.37 -151.223)" fill="#fbb901"/>
        <path id="Path_424" data-name="Path 424" d="M96.118,347.84A10.452,10.452,0,1,1,85.56,337.491,10.344,10.344,0,0,1,96.118,347.84Z" transform="translate(-15.742 -151.55)" fill="#fbb901"/>
        <path id="Path_425" data-name="Path 425" d="M104.807,306.056a10.342,10.342,0,1,1-10.672,9.867A10.277,10.277,0,0,1,104.807,306.056Z" transform="translate(30.393 -228.231)" fill="#fbb901"/>
        <path id="Path_426" data-name="Path 426" d="M140,316.427A10.351,10.351,0,1,1,129.656,306.2,10.264,10.264,0,0,1,140,316.427Z" transform="translate(91.79 -227.875)" fill="#fbb901"/>
        <path id="Path_427" data-name="Path 427" d="M141.922,377.147a10.288,10.288,0,1,1,10.407-10.228A10.343,10.343,0,0,1,141.922,377.147Z" transform="translate(122.173 -105.011)" fill="#fbb901"/>
        <path id="Path_428" data-name="Path 428" d="M101.912,366.6a10.247,10.247,0,1,1-10.2-10.166A10.361,10.361,0,0,1,101.912,366.6Z" transform="translate(-0.612 -105.348)" fill="#fbb901"/>
        <path id="Path_429" data-name="Path 429" d="M148.351,325.133a10.177,10.177,0,1,1-10.118,10.235A10.3,10.3,0,0,1,148.351,325.133Z" transform="translate(137.967 -181.693)" fill="#fbb901"/>
        <path id="Path_430" data-name="Path 430" d="M97.983,383.136a10.2,10.2,0,1,1,10.135-10.255A10.325,10.325,0,0,1,97.983,383.136Z" transform="translate(14.777 -89.959)" fill="#fbb901"/>
        <path id="Path_431" data-name="Path 431" d="M145.881,373.137a10.2,10.2,0,1,1-10.145-10.245A10.325,10.325,0,0,1,145.881,373.137Z" transform="translate(106.885 -89.594)" fill="#fbb901"/>
        <path id="Path_432" data-name="Path 432" d="M85.545,345.248a10.125,10.125,0,1,1,10.015-10.3A10.218,10.218,0,0,1,85.545,345.248Z" transform="translate(-15.51 -182.022)" fill="#fbb901"/>
        <path id="Path_433" data-name="Path 433" d="M116.833,389.307a10.125,10.125,0,1,1,10.046-10.266A10.213,10.213,0,0,1,116.833,389.307Z" transform="translate(60.881 -74.556)" fill="#fbb901"/>
        <path id="Path_434" data-name="Path 434" d="M157.787,360.3a9.8,9.8,0,1,1-9.712-9.881A9.8,9.8,0,0,1,157.787,360.3Z" transform="translate(137.872 -120.014)" fill="#fbb901"/>
        <path id="Path_435" data-name="Path 435" d="M94.793,359.984a9.764,9.764,0,1,1-9.695-9.705A9.838,9.838,0,0,1,94.793,359.984Z" transform="translate(-15.62 -120.358)" fill="#fbb901"/>
        <path id="Path_436" data-name="Path 436" d="M94.221,378.395a9.537,9.537,0,1,1,9.09,9.9A9.531,9.531,0,0,1,94.221,378.395Z" transform="translate(30.592 -74.144)" fill="#fbb901"/>
        <path id="Path_437" data-name="Path 437" d="M119.4,378.538a9.535,9.535,0,1,1,9.086,9.908A9.524,9.524,0,0,1,119.4,378.538Z" transform="translate(91.999 -73.778)" fill="#fbb901"/>
        <path id="Path_438" data-name="Path 438" d="M122.847,300.2a9.34,9.34,0,1,1-9.544,9.065A9.243,9.243,0,0,1,122.847,300.2Z" transform="translate(77.156 -242.508)" fill="#fbb901"/>
        <path id="Path_439" data-name="Path 439" d="M119.365,309.561a9.325,9.325,0,1,1-9.079-9.506A9.239,9.239,0,0,1,119.365,309.561Z" transform="translate(46.464 -242.865)" fill="#fbb901"/>
        <path id="Path_440" data-name="Path 440" d="M153.846,349.664a8.939,8.939,0,1,1,8.918-9.021A8.843,8.843,0,0,1,153.846,349.664Z" transform="translate(154.198 -165.463)" fill="#fbb901"/>
        <path id="Path_441" data-name="Path 441" d="M78.271,331.653a8.883,8.883,0,1,1-8.894,8.746A8.76,8.76,0,0,1,78.271,331.653Z" transform="translate(-29.982 -165.789)" fill="#fbb901"/>
        <path id="Path_442" data-name="Path 442" d="M153.628,344.421a8.781,8.781,0,1,1-8.845,8.78A8.741,8.741,0,0,1,153.628,344.421Z" transform="translate(153.944 -134.647)" fill="#fbb901"/>
        <path id="Path_443" data-name="Path 443" d="M78,361.764a8.741,8.741,0,1,1,8.756-8.6A8.785,8.785,0,0,1,78,361.764Z" transform="translate(-30.248 -134.983)" fill="#fbb901"/>
        <path id="Path_444" data-name="Path 444" d="M140.971,324.152a8.743,8.743,0,1,1,8.87-8.488A8.791,8.791,0,0,1,140.971,324.152Z" transform="translate(123.633 -226.734)" fill="#fbb901"/>
        <path id="Path_445" data-name="Path 445" d="M99.473,315.135a8.732,8.732,0,1,1-8.787-8.615A8.823,8.823,0,0,1,99.473,315.135Z" transform="translate(0.83 -227.092)" fill="#fbb901"/>
        <path id="Path_446" data-name="Path 446" d="M156.032,321.677a8.682,8.682,0,1,1-8.667-8.7A8.814,8.814,0,0,1,156.032,321.677Z" transform="translate(139.029 -211.338)" fill="#fbb901"/>
        <path id="Path_447" data-name="Path 447" d="M84.538,330.194a8.683,8.683,0,1,1,8.557-8.808A8.814,8.814,0,0,1,84.538,330.194Z" transform="translate(-14.489 -211.705)" fill="#fbb901"/>
        <path id="Path_448" data-name="Path 448" d="M117.51,384.125a8.326,8.326,0,1,1-8.333-8.25A8.225,8.225,0,0,1,117.51,384.125Z" transform="translate(46.805 -57.926)" fill="#fbb901"/>
        <path id="Path_449" data-name="Path 449" d="M130.1,384.4a8.327,8.327,0,1,1-8.216-8.374A8.221,8.221,0,0,1,130.1,384.4Z" transform="translate(77.508 -57.563)" fill="#fbb901"/>
        <path id="Path_450" data-name="Path 450" d="M104.919,308.714a8.237,8.237,0,1,1-8.065-8.343A8.267,8.267,0,0,1,104.919,308.714Z" transform="translate(16.531 -242.094)" fill="#fbb901"/>
        <path id="Path_451" data-name="Path 451" d="M142.745,308.684a8.273,8.273,0,1,1-8.436-8.175A8.216,8.216,0,0,1,142.745,308.684Z" transform="translate(108.615 -241.754)" fill="#fbb901"/>
        <path id="Path_452" data-name="Path 452" d="M161.2,327.508a8.024,8.024,0,1,1-8.006-8.044A8.081,8.081,0,0,1,161.2,327.508Z" transform="translate(154.846 -195.52)" fill="#fbb901"/>
        <path id="Path_453" data-name="Path 453" d="M77.723,319.314a8.025,8.025,0,1,1-8.1,7.951A8.084,8.084,0,0,1,77.723,319.314Z" transform="translate(-29.372 -195.886)" fill="#fbb901"/>
        <path id="Path_454" data-name="Path 454" d="M146.671,379.571a8.024,8.024,0,1,1,8.089-7.958A8.08,8.08,0,0,1,146.671,379.571Z" transform="translate(139.128 -88.052)" fill="#fbb901"/>
        <path id="Path_455" data-name="Path 455" d="M140.428,369.872a7.84,7.84,0,1,1-7.958,7.655A7.718,7.718,0,0,1,140.428,369.872Z" transform="translate(123.908 -72.569)" fill="#fbb901"/>
        <path id="Path_456" data-name="Path 456" d="M83.828,379.207a7.9,7.9,0,1,1,7.772-7.893A7.8,7.8,0,0,1,83.828,379.207Z" transform="translate(-14.295 -88.328)" fill="#fbb901"/>
        <path id="Path_457" data-name="Path 457" d="M90.007,369.728a7.819,7.819,0,1,1-7.882,7.755A7.7,7.7,0,0,1,90.007,369.728Z" transform="translate(1.11 -72.92)" fill="#fbb901"/>
        <path id="Path_458" data-name="Path 458" d="M122.991,302.2a7.764,7.764,0,1,1-7.752-7.838A7.687,7.687,0,0,1,122.991,302.2Z" transform="translate(62.922 -256.745)" fill="#fbb901"/>
        <path id="Path_459" data-name="Path 459" d="M152.726,357.375a7.525,7.525,0,1,1-7.576,7.47A7.584,7.584,0,0,1,152.726,357.375Z" transform="translate(154.837 -103.05)" fill="#fbb901"/>
        <path id="Path_460" data-name="Path 460" d="M77.2,372.2a7.484,7.484,0,1,1,7.4-7.635A7.488,7.488,0,0,1,77.2,372.2Z" transform="translate(-29.355 -103.387)" fill="#fbb901"/>
        <path id="Path_461" data-name="Path 461" d="M95.909,390.655a7.231,7.231,0,1,1,7.14-7.257A7.21,7.21,0,0,1,95.909,390.655Z" transform="translate(16.881 -57.151)" fill="#fbb901"/>
        <path id="Path_462" data-name="Path 462" d="M127.56,294.52a7.232,7.232,0,1,1-7.349,7.043A7.209,7.209,0,0,1,127.56,294.52Z" transform="translate(94.004 -256.365)" fill="#fbb901"/>
        <path id="Path_463" data-name="Path 463" d="M158.879,338.578a7.232,7.232,0,1,1-7.349,7.047A7.209,7.209,0,0,1,158.879,338.578Z" transform="translate(170.395 -148.899)" fill="#fbb901"/>
        <path id="Path_464" data-name="Path 464" d="M140.811,383.483a7.229,7.229,0,1,1-7.257-7.14A7.216,7.216,0,0,1,140.811,383.483Z" transform="translate(108.991 -56.784)" fill="#fbb901"/>
        <path id="Path_465" data-name="Path 465" d="M109.419,301.535a7.186,7.186,0,1,1-7.284-7.153A7.262,7.262,0,0,1,109.419,301.535Z" transform="translate(32.628 -256.701)" fill="#fbb901"/>
        <path id="Path_466" data-name="Path 466" d="M70.792,352.814a7.186,7.186,0,1,1,7.153-7.281A7.262,7.262,0,0,1,70.792,352.814Z" transform="translate(-44.128 -149.233)" fill="#fbb901"/>
        <path id="Path_467" data-name="Path 467" d="M158.626,339.61a6.739,6.739,0,1,1,6.672-6.675A6.67,6.67,0,0,1,158.626,339.61Z" transform="translate(171.108 -179.256)" fill="#fbb901"/>
        <path id="Path_468" data-name="Path 468" d="M70.349,339.436a6.725,6.725,0,1,1,6.81-6.576A6.673,6.673,0,0,1,70.349,339.436Z" transform="translate(-43.801 -179.612)" fill="#fbb901"/>
        <path id="Path_469" data-name="Path 469" d="M114.374,395.885a6.609,6.609,0,1,1,6.493-6.655A6.76,6.76,0,0,1,114.374,395.885Z" transform="translate(63.374 -41.357)" fill="#fbb901"/>
        <path id="Path_470" data-name="Path 470" d="M164.735,357.961a6.5,6.5,0,1,1-6.287-6.579A6.575,6.575,0,0,1,164.735,357.961Z" transform="translate(170.915 -117.678)" fill="#fbb901"/>
        <path id="Path_471" data-name="Path 471" d="M69.941,363.844a6.276,6.276,0,1,1,6.3-6.314A6.152,6.152,0,0,1,69.941,363.844Z" transform="translate(-43.848 -117.883)" fill="#fbb901"/>
        <path id="Path_472" data-name="Path 472" d="M145.316,301.2a5.89,5.89,0,1,1-5.836,5.943A5.841,5.841,0,0,1,145.316,301.2Z" transform="translate(141.009 -240.064)" fill="#fbb901"/>
        <path id="Path_473" data-name="Path 473" d="M107.052,388.82a5.89,5.89,0,1,1-5.836-5.943A5.843,5.843,0,0,1,107.052,388.82Z" transform="translate(33.182 -40.847)" fill="#fbb901"/>
        <path id="Path_474" data-name="Path 474" d="M126.214,394.807a5.891,5.891,0,1,1,6.012-5.767A5.839,5.839,0,0,1,126.214,394.807Z" transform="translate(94.589 -40.482)" fill="#fbb901"/>
        <path id="Path_475" data-name="Path 475" d="M82.364,301.08a5.8,5.8,0,1,1-5.795,5.86A5.679,5.679,0,0,1,82.364,301.08Z" transform="translate(-12.439 -240.361)" fill="#fbb901"/>
        <path id="Path_476" data-name="Path 476" d="M151.483,319.061a5.765,5.765,0,1,1,5.857-5.541A5.668,5.668,0,0,1,151.483,319.061Z" transform="translate(156.447 -224.622)" fill="#fbb901"/>
        <path id="Path_477" data-name="Path 477" d="M76.11,318.911a5.764,5.764,0,1,1,5.7-5.7A5.652,5.652,0,0,1,76.11,318.911Z" transform="translate(-27.769 -224.987)" fill="#fbb901"/>
        <path id="Path_478" data-name="Path 478" d="M114.408,294.133a5.537,5.537,0,1,1,5.479,5.657A5.678,5.678,0,0,1,114.408,294.133Z" transform="translate(79.852 -270.519)" fill="#fbb901"/>
        <path id="Path_479" data-name="Path 479" d="M144.074,300.448a5.369,5.369,0,1,1-5.348-5.389A5.328,5.328,0,0,1,144.074,300.448Z" transform="translate(126.026 -255.047)" fill="#fbb901"/>
        <path id="Path_480" data-name="Path 480" d="M88.242,294.948a5.238,5.238,0,1,1-5.217,5.193A5.118,5.118,0,0,1,88.242,294.948Z" transform="translate(3.308 -255.318)" fill="#fbb901"/>
        <path id="Path_481" data-name="Path 481" d="M112.605,294.025a5.369,5.369,0,1,1-5.327-5.41A5.329,5.329,0,0,1,112.605,294.025Z" transform="translate(49.268 -270.765)" fill="#fbb901"/>
        <path id="Path_482" data-name="Path 482" d="M157.3,314.024a5.092,5.092,0,1,1-5,5.179A5.216,5.216,0,0,1,157.3,314.024Z" transform="translate(172.278 -208.792)" fill="#fbb901"/>
        <path id="Path_483" data-name="Path 483" d="M74.23,319.029a5.011,5.011,0,1,1-4.76-5.124A5.129,5.129,0,0,1,74.23,319.029Z" transform="translate(-42.586 -209.099)" fill="#fbb901"/>
        <path id="Path_484" data-name="Path 484" d="M150.807,380.314a4.776,4.776,0,1,1,4.694-4.729A4.672,4.672,0,0,1,150.807,380.314Z" transform="translate(156.783 -70.395)" fill="#fbb901"/>
        <path id="Path_485" data-name="Path 485" d="M75.143,370.643a4.672,4.672,0,1,1-4.691,4.715A4.623,4.623,0,0,1,75.143,370.643Z" transform="translate(-27.359 -70.688)" fill="#fbb901"/>
        <path id="Path_486" data-name="Path 486" d="M163.209,354.831a4.6,4.6,0,1,1,4.571-4.622A4.679,4.679,0,0,1,163.209,354.831Z" transform="translate(187.614 -131.678)" fill="#fbb901"/>
        <path id="Path_487" data-name="Path 487" d="M81.417,386.276a4.67,4.67,0,1,1,4.67-4.732A4.622,4.622,0,0,1,81.417,386.276Z" transform="translate(-12.008 -55.334)" fill="#fbb901"/>
        <path id="Path_488" data-name="Path 488" d="M149.026,381.757a4.671,4.671,0,1,1-4.732-4.67A4.62,4.62,0,0,1,149.026,381.757Z" transform="translate(141.506 -54.97)" fill="#fbb901"/>
        <path id="Path_489" data-name="Path 489" d="M62.892,332.881a4.675,4.675,0,1,1-4.877,4.529A4.635,4.635,0,0,1,62.892,332.881Z" transform="translate(-57.698 -162.804)" fill="#fbb901"/>
        <path id="Path_490" data-name="Path 490" d="M168.057,337.654a4.671,4.671,0,1,1-4.78-4.626A4.627,4.627,0,0,1,168.057,337.654Z" transform="translate(187.928 -162.436)" fill="#fbb901"/>
        <path id="Path_491" data-name="Path 491" d="M62.5,354.463a4.47,4.47,0,1,1,4.368-4.505A4.589,4.589,0,0,1,62.5,354.463Z" transform="translate(-57.922 -131.954)" fill="#fbb901"/>
        <path id="Path_492" data-name="Path 492" d="M135.591,293.255a4.088,4.088,0,1,1-4.058-4.117A4.15,4.15,0,0,1,135.591,293.255Z" transform="translate(111.584 -269.489)" fill="#fbb901"/>
        <path id="Path_493" data-name="Path 493" d="M160.719,368.821a4.148,4.148,0,1,1-4-4.168A4.1,4.1,0,0,1,160.719,368.821Z" transform="translate(172.581 -85.305)" fill="#fbb901"/>
        <path id="Path_494" data-name="Path 494" d="M68.383,364.5a4.148,4.148,0,1,1-4.072,4.093A4.092,4.092,0,0,1,68.383,364.5Z" transform="translate(-42.338 -85.669)" fill="#fbb901"/>
        <path id="Path_495" data-name="Path 495" d="M97.781,292.948A4.061,4.061,0,1,1,93.547,289,4.176,4.176,0,0,1,97.781,292.948Z" transform="translate(19.494 -269.836)" fill="#fbb901"/>
        <path id="Path_496" data-name="Path 496" d="M87.048,383.462a3.884,3.884,0,1,1-3.776,4.051A3.913,3.913,0,0,1,87.048,383.462Z" transform="translate(3.9 -39.424)" fill="#fbb901"/>
        <path id="Path_497" data-name="Path 497" d="M137.388,383.613a3.884,3.884,0,1,1-3.766,4.065A3.909,3.909,0,0,1,137.388,383.613Z" transform="translate(126.71 -39.059)" fill="#fbb901"/>
        <path id="Path_498" data-name="Path 498" d="M109.917,393.611a3.884,3.884,0,1,1-3.972-3.855A3.912,3.912,0,0,1,109.917,393.611Z" transform="translate(49.955 -24.072)" fill="#fbb901"/>
        <path id="Path_499" data-name="Path 499" d="M114.8,393.442a3.687,3.687,0,1,1,3.542,3.89A3.6,3.6,0,0,1,114.8,393.442Z" transform="translate(80.798 -23.565)" fill="#fbb901"/>
        <path id="Path_500" data-name="Path 500" d="M65.5,324.276A3.583,3.583,0,1,1,62,320.607,3.666,3.666,0,0,1,65.5,324.276Z" transform="translate(-56.925 -192.735)" fill="#fbb901"/>
        <path id="Path_501" data-name="Path 501" d="M162.6,320.756a3.582,3.582,0,1,1-3.566,3.6A3.658,3.658,0,0,1,162.6,320.756Z" transform="translate(188.699 -192.369)" fill="#fbb901"/>
        <path id="Path_502" data-name="Path 502" d="M161.915,364.72a2.922,2.922,0,0,1-2.868-3.081c0-1.789,1.169-3.15,2.865-2.906a4.554,4.554,0,0,1,3.016,2.435C165.5,362.587,163.563,364.668,161.915,364.72Z" transform="translate(188.736 -99.809)" fill="#fbb901"/>
        <path id="Path_503" data-name="Path 503" d="M114.942,285.61a2.937,2.937,0,0,1-3.047,2.923,2.837,2.837,0,0,1-3.037-2.82c-.141-1.5.519-2.469,2.235-2.259C112.61,283.642,114.746,282.635,114.942,285.61Z" transform="translate(66.273 -283.425)" fill="#fbb901"/>
        <path id="Path_504" data-name="Path 504" d="M61.226,358.243c1.18,1.871,2.4,2.982,2.517,4.192a2.331,2.331,0,0,1-2.934,2.586c-1.1-.4-2.012-2.228-2.284-3.566C58.389,360.784,59.868,359.787,61.226,358.243Z" transform="translate(-56.469 -100.933)" fill="#fbb901"/>
      </g>
      <g id="Group_39" data-name="Group 39" transform="translate(34.468 343.066)">
        <g id="Group_35" data-name="Group 35">
          <g id="Group_30" data-name="Group 30">
            <g id="Group_27" data-name="Group 27" transform="translate(17.019 6.049)">
              <g id="Group_26" data-name="Group 26">
                <path id="Path_505" data-name="Path 505" d="M181.891,383.716a86.351,86.351,0,0,1,27.193,52,80.331,80.331,0,0,1,.4,18.912,74.766,74.766,0,0,1-4.168,18.348A64.709,64.709,0,0,1,196,489.989a60.811,60.811,0,0,1-13.488,13.179,67.148,67.148,0,0,1-16.714,8.57,75.5,75.5,0,0,1-19.428,3.945,94.264,94.264,0,0,1-21.374-.925,115.537,115.537,0,0,1-22.279-5.819,111.432,111.432,0,0,1-21.883-10.929,106.724,106.724,0,0,1-18.657-15.088,87.046,87.046,0,0,1-13.708-17.994,70.663,70.663,0,0,1-7.659-19.785A57.936,57.936,0,0,1,46.3,405.059a66.391,66.391,0,0,1,13.884-17.7,102.524,102.524,0,0,1,30.711-19.789,89.373,89.373,0,0,1,32.462-6.909A81.287,81.287,0,0,1,154.34,366.2,86.845,86.845,0,0,1,181.891,383.716Zm-36.259,38.811a38.616,38.616,0,0,0-9.275-5.585,32.884,32.884,0,0,0-10.283-2.579A27.241,27.241,0,0,0,115.76,415.5a23.162,23.162,0,0,0-14.6,14.544,19.6,19.6,0,0,0-.454,9.427,23.659,23.659,0,0,0,4.058,9.124,34.122,34.122,0,0,0,7.882,7.841,46.874,46.874,0,0,0,9.994,5.513,38.653,38.653,0,0,0,10.9,2.731,26.194,26.194,0,0,0,10.324-.987,17.9,17.9,0,0,0,8.409-5.637,19.914,19.914,0,0,0,4.571-8.852,21.59,21.59,0,0,0-.038-9.475,28.448,28.448,0,0,0-3.965-9.22A34.256,34.256,0,0,0,145.633,422.527Z" transform="translate(-39.416 -160.759)" fill="#00a8b5"/>
                <path id="Path_506" data-name="Path 506" d="M219.879,359.172a55.553,55.553,0,0,1,7.755,14.751,60.113,60.113,0,0,1,3.164,15.951,70.274,70.274,0,0,1-.98,16.6,77.165,77.165,0,0,1-4.88,16.57,83.634,83.634,0,0,1-8.766,15.81,79.3,79.3,0,0,1-12.955,14.3,73.991,73.991,0,0,1-32.8,16.766,73.447,73.447,0,0,1-18.386,1.75,79.647,79.647,0,0,1-18.84-2.858,88.311,88.311,0,0,1-18.372-7.384,80.178,80.178,0,0,1-16.694-11.958,74.89,74.89,0,0,1-12.742-15.342,62.756,62.756,0,0,1-7.559-17.378,55.647,55.647,0,0,1-1.654-18.262,53.858,53.858,0,0,1,4.6-17.99,62.192,62.192,0,0,1,10.995-16.5,76.774,76.774,0,0,1,17.275-13.887A118.441,118.441,0,0,1,142.169,336.3a94.18,94.18,0,0,1,31.265-2.548,69.306,69.306,0,0,1,26.478,7.827A59.288,59.288,0,0,1,219.879,359.172Zm-43.57,30.055a26.66,26.66,0,0,0-6.813-5.747,26.242,26.242,0,0,0-8.55-3.246,26.627,26.627,0,0,0-9.588-.028,27.232,27.232,0,0,0-17.075,11.229,18.87,18.87,0,0,0-2.944,8.213,17.926,17.926,0,0,0,1.19,8.416,23.473,23.473,0,0,0,4.97,7.683,33.159,33.159,0,0,0,7.487,5.836,30.107,30.107,0,0,0,9.035,3.456,24.682,24.682,0,0,0,9.516.106,20.915,20.915,0,0,0,9.062-4.185,23.482,23.482,0,0,0,6.5-7.36,20.617,20.617,0,0,0,2.545-8.309,21.33,21.33,0,0,0-1.042-8.429A22.963,22.963,0,0,0,176.309,389.227Z" transform="translate(49.847 -227.28)" fill="#00a8b5"/>
                <path id="Path_507" data-name="Path 507" d="M264.963,333.648a21.734,21.734,0,0,1,1.723,12.646,32.864,32.864,0,0,1-4.9,12.126,63.04,63.04,0,0,1-9.833,11.669A149.466,149.466,0,0,1,238.7,381.242q-7.243,5.437-15.314,10.479-8.089,5.035-16.123,9.385c7.5,12.484,11.26,18.726,18.767,31.21-17.141,10.555-25.5,16.133-41.737,27.843q-6.211-8.708-12.051-16.986t-11.583-16.453q-5.752-8.161-11.58-16.439c-3.883-5.516-7.927-11.232-11.979-17.12-4.292-6.235-8.66-12.515-13.158-18.685s-8.773-12.532-12.783-19.063a203.787,203.787,0,0,1,27.788-17.67,238.964,238.964,0,0,1,31.564-13.8,170.476,170.476,0,0,1,19.675-5.7,146.709,146.709,0,0,1,19.913-3.119,126.038,126.038,0,0,1,18.678-.261,68.6,68.6,0,0,1,16.044,2.81A40.368,40.368,0,0,1,257.2,323.84,24.082,24.082,0,0,1,264.963,333.648ZM214.7,354.266c-1.671-3.085-4.488-4.9-8.491-5.461a26.161,26.161,0,0,0-13.334,2.081,49.356,49.356,0,0,0-4.877,2.3q-2.44,1.326-4.519,2.659C188.02,364.607,190.3,369,194.9,377.786c1.066-.371,2.07-.784,3.009-1.217s1.916-.887,2.93-1.355a34.957,34.957,0,0,0,7.074-4.292,25.1,25.1,0,0,0,5.155-5.334,15.007,15.007,0,0,0,2.538-5.73A8.208,8.208,0,0,0,214.7,354.266Z" transform="translate(135.563 -272.984)" fill="#00a8b5"/>
                <path id="Path_508" data-name="Path 508" d="M289.035,350.474a18.964,18.964,0,0,1-3.329,13.86,53.645,53.645,0,0,1-12.615,12.776,132.656,132.656,0,0,1-19.318,11.875,251.334,251.334,0,0,1-24.136,10.765,98.9,98.9,0,0,1-11.267,3.535q-6.247,1.589-12.811,2.892t-12.794,2.266q-6.232.955-11.17,1.561c-2.693-11.232-3.965-16.811-6.369-27.881a127.366,127.366,0,0,0,22.688-2.273,195.389,195.389,0,0,0,23.008-5.688q2.1-.655,5.069-1.661a48.942,48.942,0,0,0,5.568-2.259,19.228,19.228,0,0,0,4.254-2.693,2.906,2.906,0,0,0,1.18-3.1,2.425,2.425,0,0,0-1.916-1.572,13.493,13.493,0,0,0-3.907-.361,37.838,37.838,0,0,0-5.138.557q-2.822.49-5.472,1.1c-1.771.416-3.418.846-4.928,1.286s-2.724.8-3.628,1.066a96.522,96.522,0,0,1-18.289,3.738,55.106,55.106,0,0,1-15.6-.519,31.575,31.575,0,0,1-12.236-4.98,21.7,21.7,0,0,1-7.7-9.365,19.343,19.343,0,0,1-.206-15.676c2.167-5.166,6.043-9.977,11.669-14.324a79,79,0,0,1,21.092-11.194,133.873,133.873,0,0,1,27.145-6.71q6.433-.923,13.351-1.6,6.9-.671,13.832-.918,6.913-.253,13.547-.1t12.639.791c-.4,9.024-.537,13.585-.705,22.8-5.791-.024-11.848.158-18.148.581a157.4,157.4,0,0,0-18.262,2.256c-1.07.2-2.452.471-4.13.812s-3.439.75-5.255,1.221-3.642.994-5.465,1.589a37.527,37.527,0,0,0-4.774,1.888,10.381,10.381,0,0,0-3.106,2.16,2.054,2.054,0,0,0-.561,2.3,3.075,3.075,0,0,0,2.655,1.627,20.726,20.726,0,0,0,5.152-.041,63.7,63.7,0,0,0,6.61-1.125q3.549-.784,7.036-1.613t6.493-1.52q3.008-.7,4.973-1.011a93.3,93.3,0,0,1,17.969-1.286,56.972,56.972,0,0,1,14.014,2.015,23.24,23.24,0,0,1,9.244,4.811A12.246,12.246,0,0,1,289.035,350.474Z" transform="translate(245.955 -296.915)" fill="#00a8b5"/>
                <path id="Path_509" data-name="Path 509" d="M261.168,303.039c-4.842,18.647-6.985,28.277-10.692,48.124-17.464,2.211-26.127,3.57-43.285,6.779-4.567-21.477-6.988-32.335-12.116-54.28C221.384,302.352,234.622,302.217,261.168,303.039Zm-8.759,61.973a6.262,6.262,0,0,1-1.892,4.11,23.776,23.776,0,0,1-4.994,4.1,47.959,47.959,0,0,1-7.208,3.731,57.319,57.319,0,0,1-8.749,2.892,47.889,47.889,0,0,1-8.928,1.407,29.518,29.518,0,0,1-7.432-.433,13.351,13.351,0,0,1-5.324-2.184,5.607,5.607,0,0,1-2.39-3.831,6.885,6.885,0,0,1,1.248-4.708,16.91,16.91,0,0,1,4.622-4.6,35.39,35.39,0,0,1,7.318-3.821,47.922,47.922,0,0,1,9.351-2.555,48.7,48.7,0,0,1,9.4-.75,36.259,36.259,0,0,1,7.745.918,14.363,14.363,0,0,1,5.272,2.287A4.266,4.266,0,0,1,252.409,365.013Z" transform="translate(340.256 -302.526)" fill="#00a8b5"/>
              </g>
            </g>
            <g id="Group_29" data-name="Group 29">
              <g id="Group_28" data-name="Group 28">
                <path id="Path_510" data-name="Path 510" d="M176.942,381.953a86.288,86.288,0,0,1,27.193,52,80.3,80.3,0,0,1,.4,18.908,74.914,74.914,0,0,1-4.168,18.351,64.709,64.709,0,0,1-9.313,17.017,60.883,60.883,0,0,1-13.488,13.179,67.332,67.332,0,0,1-16.714,8.57,75.656,75.656,0,0,1-19.428,3.945,94.055,94.055,0,0,1-21.374-.929,115.359,115.359,0,0,1-22.282-5.816,111.616,111.616,0,0,1-21.883-10.93,107.134,107.134,0,0,1-18.657-15.087,87.405,87.405,0,0,1-13.708-18,70.679,70.679,0,0,1-7.656-19.785A57.88,57.88,0,0,1,41.35,403.3a66.391,66.391,0,0,1,13.88-17.7A102.472,102.472,0,0,1,85.945,365.81a89.373,89.373,0,0,1,32.462-6.909,81.287,81.287,0,0,1,30.987,5.537A86.822,86.822,0,0,1,176.942,381.953Zm-36.255,38.811a38.862,38.862,0,0,0-9.275-5.585,33.088,33.088,0,0,0-10.286-2.579,27.214,27.214,0,0,0-10.311,1.138,23.141,23.141,0,0,0-14.6,14.544,19.554,19.554,0,0,0-.454,9.427,23.6,23.6,0,0,0,4.055,9.124,34.394,34.394,0,0,0,7.882,7.841,46.984,46.984,0,0,0,10,5.513,38.746,38.746,0,0,0,10.9,2.731,26.194,26.194,0,0,0,10.324-.987,17.921,17.921,0,0,0,8.409-5.637,19.943,19.943,0,0,0,4.571-8.856,21.626,21.626,0,0,0-.038-9.471,28.447,28.447,0,0,0-3.965-9.22A34.419,34.419,0,0,0,140.686,420.764Z" transform="translate(-34.468 -159)" fill="#42255b"/>
                <path id="Path_511" data-name="Path 511" d="M214.933,357.411a55.6,55.6,0,0,1,7.752,14.75,60.011,60.011,0,0,1,3.167,15.951,70.481,70.481,0,0,1-.984,16.6,76.958,76.958,0,0,1-4.877,16.57,83.754,83.754,0,0,1-8.77,15.81,79.387,79.387,0,0,1-12.952,14.3,74.026,74.026,0,0,1-32.8,16.766,73.414,73.414,0,0,1-18.382,1.75,79.762,79.762,0,0,1-18.84-2.858,88.325,88.325,0,0,1-18.372-7.387,80.05,80.05,0,0,1-16.7-11.954,74.979,74.979,0,0,1-12.739-15.342,62.845,62.845,0,0,1-7.559-17.378,55.665,55.665,0,0,1-1.658-18.262,53.844,53.844,0,0,1,4.6-17.99,62.2,62.2,0,0,1,10.991-16.5A76.865,76.865,0,0,1,104.1,348.349a118.468,118.468,0,0,1,33.122-13.808,94.294,94.294,0,0,1,31.269-2.552,69.327,69.327,0,0,1,26.478,7.831A59.276,59.276,0,0,1,214.933,357.411Zm-43.57,30.058a26.74,26.74,0,0,0-6.813-5.75,26.268,26.268,0,0,0-8.55-3.243,26.573,26.573,0,0,0-9.592-.027,27.238,27.238,0,0,0-17.072,11.229,18.873,18.873,0,0,0-2.944,8.209,17.933,17.933,0,0,0,1.19,8.419,23.507,23.507,0,0,0,4.97,7.683,33.254,33.254,0,0,0,7.484,5.836,30.176,30.176,0,0,0,9.035,3.456,24.7,24.7,0,0,0,9.52.106,20.9,20.9,0,0,0,9.059-4.185,23.425,23.425,0,0,0,6.5-7.363,20.64,20.64,0,0,0,2.545-8.305,21.386,21.386,0,0,0-1.042-8.429A22.929,22.929,0,0,0,171.362,387.469Z" transform="translate(54.796 -225.522)" fill="#42255b"/>
                <path id="Path_512" data-name="Path 512" d="M260.018,331.888a21.715,21.715,0,0,1,1.72,12.649,32.8,32.8,0,0,1-4.9,12.126,62.88,62.88,0,0,1-9.829,11.669,150.07,150.07,0,0,1-13.261,11.153q-7.243,5.437-15.318,10.476t-16.123,9.389c7.508,12.484,11.263,18.726,18.767,31.21-17.137,10.551-25.494,16.129-41.734,27.843q-6.216-8.713-12.051-16.989t-11.586-16.449q-5.747-8.161-11.576-16.443c-3.883-5.516-7.927-11.232-11.979-17.117-4.292-6.235-8.66-12.515-13.158-18.688s-8.773-12.529-12.787-19.06a204.205,204.205,0,0,1,27.788-17.67,239.172,239.172,0,0,1,31.568-13.8,171.083,171.083,0,0,1,19.672-5.7,146.83,146.83,0,0,1,19.916-3.116,125.094,125.094,0,0,1,18.678-.261,68.592,68.592,0,0,1,16.044,2.81,40.4,40.4,0,0,1,12.381,6.163A24.123,24.123,0,0,1,260.018,331.888Zm-50.263,20.621c-1.671-3.085-4.485-4.9-8.488-5.461a26.183,26.183,0,0,0-13.334,2.077,49.032,49.032,0,0,0-4.877,2.3q-2.44,1.326-4.522,2.659c4.536,8.766,6.82,13.155,11.418,21.945q1.6-.562,3.009-1.221t2.927-1.352a34.888,34.888,0,0,0,7.078-4.292,25.348,25.348,0,0,0,5.155-5.334,14.944,14.944,0,0,0,2.535-5.73A8.17,8.17,0,0,0,209.755,352.509Z" transform="translate(140.511 -271.227)" fill="#42255b"/>
                <path id="Path_513" data-name="Path 513" d="M284.087,348.715a18.951,18.951,0,0,1-3.332,13.86,53.5,53.5,0,0,1-12.611,12.773,131.947,131.947,0,0,1-19.321,11.875,251.219,251.219,0,0,1-24.132,10.768,98.874,98.874,0,0,1-11.267,3.536q-6.252,1.589-12.811,2.892t-12.794,2.263q-6.232.96-11.17,1.561c-2.693-11.232-3.965-16.807-6.369-27.878a127.427,127.427,0,0,0,22.688-2.273,195.558,195.558,0,0,0,23.008-5.688q2.1-.655,5.069-1.661a48.933,48.933,0,0,0,5.568-2.259,19.233,19.233,0,0,0,4.251-2.693,2.914,2.914,0,0,0,1.183-3.1,2.419,2.419,0,0,0-1.916-1.572,13.36,13.36,0,0,0-3.907-.365,38.458,38.458,0,0,0-5.138.561q-2.822.485-5.475,1.1t-4.925,1.283q-2.275.665-3.628,1.066a96.253,96.253,0,0,1-18.289,3.738,55.008,55.008,0,0,1-15.607-.519,31.577,31.577,0,0,1-12.233-4.976,21.7,21.7,0,0,1-7.7-9.368,19.371,19.371,0,0,1-.206-15.676c2.17-5.162,6.046-9.973,11.672-14.321a79.07,79.07,0,0,1,21.089-11.2,133.923,133.923,0,0,1,27.145-6.706q6.438-.928,13.354-1.6t13.832-.918q6.913-.253,13.547-.1t12.635.791c-.392,9.024-.533,13.585-.7,22.8q-8.692-.036-18.148.585a157.4,157.4,0,0,0-18.262,2.256q-1.609.3-4.13.812t-5.255,1.217q-2.729.7-5.465,1.592a37.313,37.313,0,0,0-4.774,1.888,10.336,10.336,0,0,0-3.106,2.16,2.062,2.062,0,0,0-.564,2.3,3.085,3.085,0,0,0,2.658,1.627,20.867,20.867,0,0,0,5.148-.041,63.74,63.74,0,0,0,6.61-1.128q3.554-.779,7.04-1.609t6.49-1.52q3.013-.7,4.976-1.015a93.523,93.523,0,0,1,17.969-1.283,56.807,56.807,0,0,1,14.014,2.015,23.239,23.239,0,0,1,9.244,4.811A12.236,12.236,0,0,1,284.087,348.715Z" transform="translate(250.905 -295.156)" fill="#42255b"/>
                <path id="Path_514" data-name="Path 514" d="M256.219,301.28c-4.839,18.647-6.981,28.277-10.689,48.124-17.464,2.208-26.127,3.57-43.285,6.779-4.567-21.477-6.992-32.335-12.119-54.28C216.439,300.592,229.676,300.458,256.219,301.28Zm-8.759,61.973a6.263,6.263,0,0,1-1.888,4.11,23.952,23.952,0,0,1-4.994,4.1,48.3,48.3,0,0,1-7.212,3.731,57.543,57.543,0,0,1-8.746,2.892,48.211,48.211,0,0,1-8.928,1.407,29.5,29.5,0,0,1-7.432-.437,13.327,13.327,0,0,1-5.324-2.18,5.607,5.607,0,0,1-2.39-3.831,6.876,6.876,0,0,1,1.245-4.708,16.911,16.911,0,0,1,4.622-4.6,35.51,35.51,0,0,1,7.322-3.821,47.622,47.622,0,0,1,9.351-2.555,48.685,48.685,0,0,1,9.4-.75,36.291,36.291,0,0,1,7.745.915,14.422,14.422,0,0,1,5.272,2.291A4.256,4.256,0,0,1,247.46,363.254Z" transform="translate(345.203 -300.767)" fill="#42255b"/>
              </g>
            </g>
          </g>
          <g id="Group_34" data-name="Group 34" transform="translate(195.655 131.995)">
            <path id="Path_515" data-name="Path 515" d="M545.646,594.235c-4.013-6.084-12.708-6.28-19.981-5.816-19.813,1.262-39.863,2.466-59.394-1.107-19.514-3.57-38.756-12.446-51.009-28.043a131.424,131.424,0,0,0,81.748-11.184c8.189-4.055,16.295-9.337,20.611-17.392,2.425-4.519,3.2-10.8-.588-14.255-3.126-2.848-7.917-2.538-12.1-1.9-14.211,2.177-28.091,6.156-42.274,8.512s-29,3.037-42.707-1.3A50.934,50.934,0,0,1,397.2,507.218c-.87-6.634-1.548-13.3-2.277-19.84-2.806-25.088-7.807-53.166-27.633-68.786a114.387,114.387,0,0,1,20.391-38.8c2.782-3.456,5.86-6.933,6.875-11.253,1.888-8.027-3.848-15.679-9.327-21.838-.777.612-1.524,1.262-2.28,1.9.609-.829,1.217-1.658,1.833-2.476-8.1-9.182-22.777-8.9-32.524-1.486s-14.572,19.7-16.7,31.754-.43,25.766-2.631,37.81c-15.215,2.039-27.778,13.509-35.5,26.774s-11.511,28.383-16.061,43.044q-1.924,6.2-4.141,12.374A73.543,73.543,0,0,1,254,512.521c-14.276,6.373-29.986,8.849-45.572,10.1s-31.265,1.334-46.786,3.226c-5.059.615-10.4,1.558-14.214,4.928-6.218,5.489-5.984,15.82-1.458,22.77s12.216,11.136,19.875,14.314A133.02,133.02,0,0,0,216.8,577.892c-34.037,19.132-77.143,17.729-110.764,37.817-7.4,4.423-14.895,11.174-14.668,19.8.175,6.772,5.358,12.618,11.476,15.531s13.065,3.439,19.833,3.793c45.465,2.366,92.176-1.369,133.947-19.469s78.182-52.141,91.34-95.721c.953-3.154,1.771-6.335,2.487-9.54,1.231,5.671,2.669,11.3,4.436,16.835,6.06,18.991,15.868,37.125,30.481,50.686,14.541,13.5,33.284,21.924,52.657,26.213s39.419,4.619,59.222,3.429c14.479-.87,29.707-2.848,41.249-11.638C545.089,610.6,550.213,601.158,545.646,594.235Z" transform="translate(-91.359 -339.147)" fill="#fff"/>
            <g id="Group_33" data-name="Group 33">
              <g id="Group_31" data-name="Group 31">
                <path id="Path_516" data-name="Path 516" d="M251.246,380.478c-6.514,14.214-19.349,24.855-33.628,31.231s-29.986,8.849-45.572,10.1-31.265,1.334-46.786,3.226c-5.059.615-10.4,1.558-14.214,4.928-6.218,5.489-5.984,15.82-1.458,22.77s12.216,11.136,19.875,14.314a133.737,133.737,0,0,0,90.886,3.893C237.981,443.5,247.552,412.881,251.246,380.478Z" transform="translate(-54.976 -238.335)" fill="#fc8f00"/>
                <path id="Path_517" data-name="Path 517" d="M206.861,341.342c5.479,6.159,11.215,13.812,9.327,21.838-1.015,4.32-4.093,7.8-6.871,11.253a114.336,114.336,0,0,0-20.394,38.8c19.827,15.62,24.827,43.7,27.633,68.786s4.729,51.989,20.3,71.85c12.254,15.624,31.513,24.511,51.044,28.084s39.581,2.37,59.394,1.107c7.274-.464,15.968-.268,19.981,5.816,4.567,6.923-.557,16.363-7.153,21.388-11.542,8.79-26.77,10.768-41.249,11.638-19.8,1.19-39.853.86-59.225-3.429S221.539,605.76,207,592.265c-14.613-13.561-24.421-31.7-30.481-50.686s-8.57-38.924-10.29-58.789c-2.2-25.35-3.123-51.133,2.184-76.022S186.876,357.093,206.861,341.342Z" transform="translate(87.008 -333.793)" fill="#fc8f00"/>
                <path id="Path_518" data-name="Path 518" d="M332.928,414.2c-15.215,2.039-27.778,13.509-35.5,26.774s-11.511,28.383-16.061,43.048c-11.267,36.3-29.522,72.985-62.121,92.523-34.4,20.618-78.787,18.6-113.213,39.165-7.4,4.423-14.895,11.174-14.668,19.8.175,6.772,5.358,12.618,11.476,15.531s13.065,3.443,19.833,3.793c45.465,2.37,92.176-1.369,133.947-19.469s78.182-52.141,91.34-95.721c7.814-25.873,7.205-53.51,4.846-80.435-1.221-13.9-2.885-27.885-1.327-41.748,2.968-26.4,17.347-50.094,33.3-71.335-8.1-9.182-22.777-8.9-32.524-1.486s-14.572,19.7-16.7,31.754S335.129,402.156,332.928,414.2Z" transform="translate(-91.359 -339.147)" fill="#fbb901"/>
                <path id="Path_519" data-name="Path 519" d="M178.287,384.08c4.378,13.691,16.862,23.737,30.57,28.074s28.524,3.656,42.707,1.3,28.063-6.335,42.274-8.512c4.179-.64,8.969-.949,12.1,1.9,3.79,3.453,3.013,9.736.588,14.255-4.316,8.054-12.422,13.337-20.611,17.392a131.216,131.216,0,0,1-93.558,8.392C181.059,428.971,176.481,405.172,178.287,384.08Z" transform="translate(119.74 -229.549)" fill="#fc8f00"/>
              </g>
              <g id="Group_32" data-name="Group 32" transform="translate(200.244 81.18)">
                <path id="Path_520" data-name="Path 520" d="M187.211,362.884a57.069,57.069,0,0,0-36.145,43.144c-.433,2.5,3.408,3.432,3.845.922a53.086,53.086,0,0,1,33.477-40.293C190.764,365.783,189.608,362,187.211,362.884Z" transform="translate(-146.051 -362.752)" fill="#fff"/>
                <path id="Path_521" data-name="Path 521" d="M155.909,379.3a2.024,2.024,0,0,0-1.238-.825,2,2,0,0,0-1.506.306,2.292,2.292,0,0,0-.825,1.238q-1.352,4.075-2.7,8.147a1.981,1.981,0,0,0,.3,1.506,1.979,1.979,0,0,0,2.748.523,2.333,2.333,0,0,0,.825-1.242l2.7-8.147A1.969,1.969,0,0,0,155.909,379.3Z" transform="translate(-149.584 -324.483)" fill="#fff"/>
              </g>
            </g>
          </g>
        </g>
        <g id="Group_38" data-name="Group 38" transform="translate(66.613 161.792)">
          <g id="Group_36" data-name="Group 36" transform="translate(447.986)">
            <path id="Path_522" data-name="Path 522" d="M209.857,347.811c-34.316,0-34.374,53.334,0,53.334C244.176,401.145,244.231,347.811,209.857,347.811Z" transform="translate(-184.098 -347.811)" fill="#fbb901"/>
            <path id="Path_523" data-name="Path 523" d="M210.7,364.528c-16.15,0-16.174,25.1,0,25.1C226.845,389.627,226.869,364.528,210.7,364.528Z" transform="translate(-148.791 -307.036)" fill="#fbb901"/>
            <path id="Path_524" data-name="Path 524" d="M219.337,350.619c-18.169,0-18.2,28.235,0,28.235C237.506,378.854,237.537,350.619,219.337,350.619Z" transform="translate(-131.409 -340.962)" fill="#fbb901"/>
          </g>
          <g id="Group_37" data-name="Group 37" transform="translate(0 213.515)">
            <path id="Path_525" data-name="Path 525" d="M88.173,409.895c-18.166,0-18.2,28.235,0,28.235C106.342,438.13,106.373,409.895,88.173,409.895Z" transform="translate(-3.347 -409.895)" fill="#fbb901"/>
            <path id="Path_526" data-name="Path 526" d="M75.05,413.079c-28.259,0-28.308,43.921,0,43.921C103.312,457,103.357,413.079,75.05,413.079Z" transform="translate(-53.837 -402.129)" fill="#fbb901"/>
            <path id="Path_527" data-name="Path 527" d="M81.4,422.158c-14.131,0-14.152,21.959,0,21.959C95.532,444.117,95.556,422.158,81.4,422.158Z" transform="translate(-12.477 -379.984)" fill="#fbb901"/>
          </g>
        </g>
      </g>
    </g>
  </g>
</svg>
